<?xml version="1.0"?>
<svg xmlns="http://www.w3.org/2000/svg" id="Layer_1" data-name="Layer 1" viewBox="0 0 64 64"><title>Icons8 RSL Colored Part 5</title><circle cx="31" cy="31" r="28" style="fill:#85cbf8;"/><path d="M31,3A28,28,0,1,0,59,31,28,28,0,0,0,31,3Zm0,50A22,22,0,1,1,46.17,15.07l.68.67q.39.4.75.82A22,22,0,0,1,31,53Z" style="fill:#f9e3ae;"/><path d="M31,53A22,22,0,0,1,9,31H7.34a4,4,0,0,0-3.95,4.71,28,28,0,0,0,55.21,0A4,4,0,0,0,54.66,31H53A22,22,0,0,1,31,53Z" style="fill:#f6d397;"/><path d="M40.9,12.35a1,1,0,0,0,.45-1.89,22.71,22.71,0,0,0-2.3-1,1,1,0,0,0-.7,1.87,21.1,21.1,0,0,1,2.1.92A1,1,0,0,0,40.9,12.35Z" style="fill:#8d6c9f;"/><path d="M31,2A29,29,0,1,0,60,31,29,29,0,0,0,31,2Zm0,56A27,27,0,1,1,58,31,27,27,0,0,1,31,58Z" style="fill:#8d6c9f;"/><path d="M31,50a1,1,0,0,0-1,1v2a1,1,0,0,0,2,0V51A1,1,0,0,0,31,50Z" style="fill:#8d6c9f;"/><path d="M37,50.08a1,1,0,0,0-1.93.52l.52,1.93A1,1,0,0,0,37.53,52Z" style="fill:#8d6c9f;"/><path d="M21.75,47.52a1,1,0,0,0-1.37.37l-1,1.73a1,1,0,0,0,1.73,1l1-1.73A1,1,0,0,0,21.75,47.52Z" style="fill:#8d6c9f;"/><path d="M41.62,47.89a1,1,0,0,0-1.73,1l1,1.73a1,1,0,1,0,1.73-1Z" style="fill:#8d6c9f;"/><path d="M26.21,49.37a1,1,0,0,0-1.22.71L24.47,52a1,1,0,1,0,1.93.52l.52-1.93A1,1,0,0,0,26.21,49.37Z" style="fill:#8d6c9f;"/><path d="M33,20H29a5,5,0,0,0-5,5,1,1,0,0,0,2,0,3,3,0,0,1,3-3h4a3,3,0,0,1,3,3v2.91a4,4,0,0,1-2.21,3.58l-5.66,2.83A7.43,7.43,0,0,0,24,41a1,1,0,0,0,1,1H37a1,1,0,0,0,0-2H26.09A5.43,5.43,0,0,1,29,36.11l5.66-2.83A6,6,0,0,0,38,27.91V25A5,5,0,0,0,33,20Z" style="fill:#faefde;"/><path d="M16.15,16.15a21.07,21.07,0,0,1,18.19-5.88,1,1,0,1,0,.32-2,23,23,0,0,0-19.92,39,1,1,0,0,0,1.41-1.41A21,21,0,0,1,16.15,16.15Z" style="fill:#8d6c9f;"/><path d="M47.26,14.74a23.16,23.16,0,0,0-2.09-1.86,1,1,0,1,0-1.23,1.57,21.27,21.27,0,0,1,1.91,1.7,21,21,0,0,1,0,29.7,1,1,0,1,0,1.41,1.41A23,23,0,0,0,47.26,14.74Z" style="fill:#8d6c9f;"/></svg>
